HIERARCHY
ROOT hip
{
  OFFSET 0 0 0
  CHANNELS 6 Xposition Yposition Zposition Zrotation Yrotation Xrotation
  JOINT abdomen
  {
    OFFSET 0 20.6881 -0.73152
    CHANNELS 3 Zrotation Xrotation Yrotation
    JOINT chest
    {
      OFFSET 0 11.7043 -0.48768
      CHANNELS 3 Zrotation Xrotation Yrotation
      JOINT neck
      {
        OFFSET 0 22.1894 -2.19456
        CHANNELS 3 Zrotation Xrotation Yrotation
        JOINT head
        {
          OFFSET -0.24384 7.07133 1.2192
          CHANNELS 3 Zrotation Xrotation Yrotation
          JOINT leftEye
          {
            OFFSET 4.14528 8.04674 8.04672
            CHANNELS 3 Zrotation Xrotation Yrotation
            End Site
            {
              OFFSET 1 0 0
            }
          }
          JOINT rightEye
          {
            OFFSET -3.6576 8.04674 8.04672
            CHANNELS 3 Zrotation Xrotation Yrotation
            End Site
            {
              OFFSET 1 0 0
            }
          }
        }
      }
      JOINT rCollar
      {
        OFFSET -2.68224 19.2634 -4.8768
        CHANNELS 3 Zrotation Xrotation Yrotation
        JOINT rShldr
        {
          OFFSET -8.77824 -1.95073 1.46304
          CHANNELS 3 Zrotation Xrotation Yrotation
          JOINT rForeArm
          {
            OFFSET -28.1742 -1.7115 0.48768
            CHANNELS 3 Zrotation Xrotation Yrotation
            JOINT rHand
            {
              OFFSET -22.5879 0.773209 7.07136
              CHANNELS 3 Zrotation Xrotation Yrotation
              JOINT rThumb1
              {
                OFFSET -1.2192 -0.487915 3.41376
                CHANNELS 3 Zrotation Xrotation Yrotation
                JOINT rThumb2
                {
                  OFFSET -3.37035 -0.52449 3.41376
                  CHANNELS 3 Zrotation Xrotation Yrotation
                  End Site
                  {
                    OFFSET -1.78271 -1.18214 1.43049
                  }
                }
              }
              JOINT rIndex1
              {
                OFFSET -7.75947 0.938293 5.60832
                CHANNELS 3 Zrotation Xrotation Yrotation
                JOINT rIndex2
                {
                  OFFSET -2.54057 -0.884171 1.56538
                  CHANNELS 3 Zrotation Xrotation Yrotation
                  End Site
                  {
                    OFFSET -1.62519 -0.234802 1.16502
                  }
                }
              }
              JOINT rMid1
              {
                OFFSET -8.24714 1.18213 3.41376
                CHANNELS 3 Zrotation Xrotation Yrotation
                JOINT rMid2
                {
                  OFFSET -3.10165 -0.590103 1.0647
                  CHANNELS 3 Zrotation Xrotation Yrotation
                  End Site
                  {
                    OFFSET -2.48547 -0.328903 0.83742
                  }
                }
              }
              JOINT rRing1
              {
                OFFSET -8.82822 0.546677 1.51678
                CHANNELS 3 Zrotation Xrotation Yrotation
                JOINT rRing2
                {
                  OFFSET -2.60934 -0.819778 -0.0198488
                  CHANNELS 3 Zrotation Xrotation Yrotation
                  End Site
                  {
                    OFFSET -2.33842 -0.294052 0.168128
                  }
                }
              }
              JOINT rPinky1
              {
                OFFSET -8.27202 -0.0477905 -0.4584
                CHANNELS 3 Zrotation Xrotation Yrotation
                JOINT rPinky2
                {
                  OFFSET -1.82734 -0.647385 -0.700984
                  CHANNELS 3 Zrotation Xrotation Yrotation
                  End Site
                  {
                    OFFSET -1.69225 -0.51767 -0.607171
                  }
                }
              }
            }
          }
        }
      }
      JOINT lCollar
      {
        OFFSET 2.68224 19.2634 -4.8768
        CHANNELS 3 Zrotation Xrotation Yrotation
        JOINT lShldr
        {
          OFFSET 8.77824 -1.95073 1.46304
          CHANNELS 3 Zrotation Xrotation Yrotation
          JOINT lForeArm
          {
            OFFSET 28.1742 -1.7115 0.48768
            CHANNELS 3 Zrotation Xrotation Yrotation
            JOINT lHand
            {
              OFFSET 22.5879 0.773209 7.07136
              CHANNELS 3 Zrotation Xrotation Yrotation
              JOINT lThumb1
              {
                OFFSET 1.2192 -0.487915 3.41376
                CHANNELS 3 Zrotation Xrotation Yrotation
                JOINT lThumb2
                {
                  OFFSET 3.37035 -0.52449 3.41376
                  CHANNELS 3 Zrotation Xrotation Yrotation
                  End Site
                  {
                    OFFSET 1.78271 -1.18214 1.43049
                  }
                }
              }
              JOINT lIndex1
              {
                OFFSET 7.75947 0.938293 5.60832
                CHANNELS 3 Zrotation Xrotation Yrotation
                JOINT lIndex2
                {
                  OFFSET 2.54057 -0.884171 1.56538
                  CHANNELS 3 Zrotation Xrotation Yrotation
                  End Site
                  {
                    OFFSET 1.62519 -0.234802 1.16502
                  }
                }
              }
              JOINT lMid1
              {
                OFFSET 8.24714 1.18213 3.41376
                CHANNELS 3 Zrotation Xrotation Yrotation
                JOINT lMid2
                {
                  OFFSET 3.10165 -0.590103 1.0647
                  CHANNELS 3 Zrotation Xrotation Yrotation
                  End Site
                  {
                    OFFSET 2.48547 -0.328903 0.83742
                  }
                }
              }
              JOINT lRing1
              {
                OFFSET 8.82822 0.546677 1.51678
                CHANNELS 3 Zrotation Xrotation Yrotation
                JOINT lRing2
                {
                  OFFSET 2.60934 -0.819778 -0.0198488
                  CHANNELS 3 Zrotation Xrotation Yrotation
                  End Site
                  {
                    OFFSET 2.33842 -0.294052 0.168128
                  }
                }
              }
              JOINT lPinky1
              {
                OFFSET 8.27202 -0.0477905 -0.4584
                CHANNELS 3 Zrotation Xrotation Yrotation
                JOINT lPinky2
                {
                  OFFSET 1.82734 -0.647385 -0.700984
                  CHANNELS 3 Zrotation Xrotation Yrotation
                  End Site
                  {
                    OFFSET 1.69225 -0.51767 -0.607171
                  }
                }
              }
            }
          }
        }
      }
    }
  }
  JOINT rButtock
  {
    OFFSET -8.77824 4.35084 1.2192
    CHANNELS 3 Zrotation Xrotation Yrotation
    JOINT rThigh
    {
      OFFSET 0 -1.70687 -2.19456
      CHANNELS 3 Zrotation Xrotation Yrotation
      JOINT rShin
      {
        OFFSET 0 -36.8199 0.73152
        CHANNELS 3 Zrotation Xrotation Yrotation
        JOINT rFoot
        {
          OFFSET 0.73152 -45.1104 -5.12064
          CHANNELS 3 Zrotation Xrotation Yrotation
          End Site
          {
            OFFSET -1.1221 -3.69964 12.103
          }
        }
      }
    }
  }
  JOINT lButtock
  {
    OFFSET 8.77824 4.35084 1.2192
    CHANNELS 3 Zrotation Xrotation Yrotation
    JOINT lThigh
    {
      OFFSET 0 -1.70687 -2.19456
      CHANNELS 3 Zrotation Xrotation Yrotation
      JOINT lShin
      {
        OFFSET 0 -36.8199 0.73152
        CHANNELS 3 Zrotation Xrotation Yrotation
        JOINT lFoot
        {
          OFFSET -0.73152 -45.1104 -5.12064
          CHANNELS 3 Zrotation Xrotation Yrotation
          End Site
          {
            OFFSET 1.1221 -3.69964 12.103
          }
        }
      }
    }
  }
}
MOTION
Frames:	4
Frame Time:	0.00833333
-1.1086 64.3658 35.5326 -183.144 32.6786 -129.372 13.0046 55.2327 -10.9379 2.6888 -5.60704 1.08232 0.0927966 10.9737 -1.16185 -8.32063 -64.0877 -4.44014 -0.0 0.0 0.0 -0.0 0.0 0.0 -4.54676e-13 -4.92173e-13 -1.89193e-13 15.5973 23.6065 57.5796 -14.1139 -7.04669 25.7835 -0.21238 13.0154 1.86165 -1.40081e-09 -1.75102e-10 8.97324e-10 -2.4109e-09 -2.91091e-10 1.56933e-09 -1.40081e-09 -1.75101e-10 8.97308e-10 7.73091 5.47488 0.417314 -1.40081e-09 -1.751e-10 8.9733e-10 2.90554 0.965183 0.102902 -1.4008e-09 -1.75099e-10 8.9732e-10 10.2786 0.731801 0.0259123 -1.40081e-09 -1.75099e-10 8.97336e-10 2.22167 -0.733487 -0.20892 -4.54843e-13 -4.92209e-13 -1.89293e-13 -31.1503 14.5873 -63.1154 8.81207 -3.45005 -15.5918 0.0111929 3.0192 -0.424718 4.54002e-09 -2.89435e-09 2.37e-09 7.85194e-09 -5.00288e-09 4.07539e-09 4.54001e-09 -2.89435e-09 2.37e-09 -7.73091 5.47488 -0.417314 4.54002e-09 -2.89435e-09 2.36998e-09 -2.90554 0.965183 -0.102902 4.54001e-09 -2.89435e-09 2.37e-09 -10.2786 0.731801 -0.0259123 4.54002e-09 -2.89435e-09 2.36999e-09 -2.22167 -0.733487 0.20892 -2.03217e-16 0.0 -3.88251e-19 -163.487 -68.5089 -166.995 -2.98659 74.3674 3.20124 -3.80031 -6.37825 -10.7525 2.03217e-16 0.0 3.88251e-19 -4.67941 -40.3938 5.73022 0.474008 51.687 -1.90597 9.92716 21.8904 -23.6369
0.0696359 64.2045 32.0202 -183.21 33.2651 -130.627 12.8113 55.1287 -11.2135 3.15901 -5.79551 1.05432 0.16354 11.2318 -0.989244 -8.49001 -63.2199 -4.25071 -0.0 0.0 0.0 -0.0 0.0 0.0 -5.15786e-13 -3.69666e-13 -1.07869e-13 16.6246 26.4502 56.346 -14.4808 -7.35213 26.5194 -0.209932 12.9345 1.84974 -1.64218e-09 -4.9231e-10 4.64463e-10 -2.83324e-09 -8.3998e-10 8.23884e-10 -1.64218e-09 -4.92308e-10 4.64449e-10 7.73091 5.47488 0.417314 -1.64218e-09 -4.92307e-10 4.6447e-10 2.90554 0.965183 0.102902 -1.64218e-09 -4.92307e-10 4.6446e-10 10.2786 0.731801 0.0259123 -1.64219e-09 -4.92307e-10 4.64476e-10 2.22167 -0.733487 -0.20892 -5.15971e-13 -3.69711e-13 -1.07981e-13 -33.8031 16.9608 -60.506 9.12394 -3.62598 -16.1689 0.00639228 5.65746 -0.792969 4.06787e-09 -2.34677e-09 1.5824e-09 7.03154e-09 -4.0557e-09 2.7127e-09 4.06786e-09 -2.34677e-09 1.5824e-09 -7.73091 5.47488 -0.417314 4.06787e-09 -2.34677e-09 1.58239e-09 -2.90554 0.965183 -0.102902 4.06786e-09 -2.34677e-09 1.5824e-09 -10.2786 0.731801 -0.0259123 4.06787e-09 -2.34677e-09 1.5824e-09 -2.22167 -0.733487 0.20892 -2.03217e-16 0.0 -3.88251e-19 -162.364 -68.4886 -166.94 -2.16195 70.3089 2.14929 -3.06836 -5.39202 -8.02502 2.03217e-16 0.0 3.88251e-19 -6.16654 -35.2453 3.37145 0.345827 48.801 -1.79132 9.8846 23.9746 -21.3326
1.20069 63.8641 28.6413 -183.349 33.8103 -131.947 12.5011 55.0037 -11.3849 3.69517 -6.05601 1.01507 0.205762 11.4737 -0.824528 -8.52394 -62.2139 -3.99071 -0.0 0.0 0.0 -0.0 0.0 0.0 -5.81334e-13 -1.20652e-13 1.6965e-14 17.7556 29.496 54.8752 -14.8779 -7.6895 27.328 -0.208787 12.8907 1.84332 -1.45621e-09 -6.00266e-10 9.91198e-11 -2.51653e-09 -1.02917e-09 1.89548e-10 -1.4562e-09 -6.00263e-10 9.91087e-11 7.73091 5.47488 0.417314 -1.4562e-09 -6.00263e-10 9.91259e-11 2.90554 0.965183 0.102902 -1.4562e-09 -6.00264e-10 9.91174e-11 10.2786 0.731801 0.0259123 -1.45621e-09 -6.00264e-10 9.91294e-11 2.22167 -0.733487 -0.20892 -5.81538e-13 -1.20698e-13 1.6819e-14 -37.0345 19.1222 -57.2942 9.48316 -3.82967 -16.8429 0.067457 9.69144 -1.36713 2.64196e-09 -1.53439e-09 6.12969e-10 4.56206e-09 -2.65068e-09 1.03857e-09 2.64196e-09 -1.5344e-09 6.12969e-10 -7.73091 5.47488 -0.417314 2.64196e-09 -1.53439e-09 6.12954e-10 -2.90554 0.965183 -0.102902 2.64195e-09 -1.5344e-09 6.12966e-10 -10.2786 0.731801 -0.0259123 2.64197e-09 -1.5344e-09 6.12961e-10 -2.22167 -0.733487 0.20892 -2.03217e-16 0.0 -3.88251e-19 -160.93 -68.8035 -166.765 -1.67806 66.215 1.35722 -2.25915 -4.02974 -4.6709 2.03217e-16 0.0 3.88251e-19 -7.66008 -30.1753 0.710865 0.287458 46.2063 -1.64963 8.8941 24.8736 -18.1457
2.28567 63.3749 25.4201 -183.502 34.2603 -133.264 12.1888 54.7893 -11.468 4.19871 -6.34501 0.980315 0.252016 11.6743 -0.680839 -8.51 -61.2095 -3.74039 -0.0 0.0 0.0 -0.0 0.0 0.0 -6.51162e-13 1.19022e-13 1.32845e-13 19.0506 32.6468 53.1756 -15.2702 -8.02925 28.1403 -0.210585 12.9447 1.85132 -1.0255e-09 -5.11949e-10 -7.65669e-11 -1.77491e-09 -8.79569e-10 -1.20116e-10 -1.02549e-09 -5.11947e-10 -7.65748e-11 7.73091 5.47488 0.417314 -1.02549e-09 -5.11947e-10 -7.6562e-11 2.90554 0.965183 0.102902 -1.02549e-09 -5.11949e-10 -7.65689e-11 10.2786 0.731801 0.0259123 -1.0255e-09 -5.11949e-10 -7.65609e-11 2.22167 -0.733487 -0.20892 -6.51376e-13 1.18981e-13 1.32663e-13 -40.346 21.1815 -53.8049 9.9002 -4.0757 -17.6242 0.20081 13.4499 -1.92121 1.20334e-09 -9.52003e-10 -8.96753e-11 2.07235e-09 -1.64279e-09 -1.74269e-10 1.20333e-09 -9.52005e-10 -8.96712e-11 -7.73091 5.47488 -0.417314 1.20334e-09 -9.52003e-10 -8.9687e-11 -2.90554 0.965183 -0.102902 1.20332e-09 -9.52008e-10 -8.96775e-11 -10.2786 0.731801 -0.0259123 1.20335e-09 -9.52006e-10 -8.96829e-11 -2.22167 -0.733487 0.20892 -2.03217e-16 0.0 -3.88251e-19 -159.356 -69.2954 -166.452 -1.44837 62.5861 0.789984 -1.64966 -2.54319 -1.59268 2.03217e-16 0.0 3.88251e-19 -8.79087 -25.5229 -1.76034 0.284348 44.4033 -1.52608 7.54338 24.9698 -14.7353
